# xmcd
#
# Track frame offsets:
#	150
#	23862
#	36320
#	45467
#	58430
#	67650
#	76627
#	82487
#	95030
#	108457
#	122635
#	140375
#	153840
#	164030
#	178165
#	185415
#	197805
#	210645
#	223862
#	237882
#	254347
#	268992
#	279047
#	289947
#	301732
#	309457
#
# Disc length: 4309
#
# Revision: 2
# Processed by: cddbd v1.5.1PL0 Copyright (c) Steve Scherf et al.
# Submitted via: CDex 1.50beta9
# Normalized: r0:DSETVAR1,TDELIM( - );r1:TSWAP
#
DISCID=8210d31a
DTITLE=Various Artist - BASSA NOVA
DYEAR=1994
DGENRE=Jazz
TTITLE0=StanGetz/Joao Gilberto - The Girl From Ipanema
TTITLE1=StanGetz/Joao Gilberto - Doralice
TTITLE2=Astrud Gilberto - Oba,Oba
TTITLE3=Astrud Gilberto - Bossa Na Praia(Beach Samba)
TTITLE4=Joao Gilberto - Chega De Saudade
TTITLE5=Joao Gilberto - Desafinado
TTITLE6=Joao Gilberto - Bin Bon
TTITLE7=Paul Winter&Carlos Lyra - Voce E Eu
TTITLE8=Paul Winter&Carlos Lyra - Se E Tarde Me Perdoa
TTITLE9=Paul Winter&Carlos Lyra - Coisa Mais Linda
TTITLE10=Paul Winter&Carlos Lyra - Lobo Bobo
TTITLE11=Elizete Cardoso - Manha De Carnaval
TTITLE12=Luiz Bonfa - Samba De Orpheu
TTITLE13=Felicidade Joao Gilberto - O Nossa Amor
TTITLE14=Nara Leao - Maria Joana
TTITLE15=Sylvia Telles - Dindi
TTITLE16=Caetano Veloso - Cavaleiro
TTITLE17=Blossom Dearie - Corcovado
TTITLE18=Walter Wanderley - Summer Samba(So Nice)
TTITLE19=Stan Gets/Luiz Bonfa/Antonio Carlos Jobin - So Danco Samba
TTITLE20=Baden Powell - Tristeza
TTITLE21=The Sergio Mendes Trio - So Nice(Samba De Verao)
TTITLE22=The Sergio Mendes Trio - One Note Samba
TTITLE23=The Sergio Mendes Trio - Mais Que Nada
TTITLE24=Astrud Gilberto - Nao Bate O Corocao
TTITLE25=Baden Powell - Garota De Ipanema
EXTD=YEAR: 1994
EXTT0=
EXTT1=
EXTT2=
EXTT3=
EXTT4=
EXTT5=
EXTT6=
EXTT7=
EXTT8=
EXTT9=
EXTT10=
EXTT11=
EXTT12=
EXTT13=
EXTT14=
EXTT15=
EXTT16=
EXTT17=
EXTT18=
EXTT19=
EXTT20=
EXTT21=
EXTT22=
EXTT23=
EXTT24=
EXTT25=
PLAYORDER=
